HIERARCHY
ROOT Hips
{
	OFFSET 51.916401 -10.738015 95.676804
	CHANNELS 6 Xposition Yposition Zposition Xrotation Yrotation Zrotation
	JOINT spine
	{
		OFFSET 0.000000 -0.458069 7.965683
		CHANNELS 3 Xrotation Yrotation Zrotation
		JOINT spine1
		{
			OFFSET 0.000000 -0.000001 10.243103
			CHANNELS 3 Xrotation Yrotation Zrotation
			JOINT spine2
			{
				OFFSET 0.000000 -0.000002 9.814751
				CHANNELS 3 Xrotation Yrotation Zrotation
				JOINT Neck
				{
					OFFSET 0.000000 -1.201384 25.198601
					CHANNELS 3 Xrotation Yrotation Zrotation
					JOINT Head
					{
						OFFSET 0.000000 -0.000002 7.613144
						CHANNELS 3 Xrotation Yrotation Zrotation
						End Site
						{
							OFFSET 0.000000 6.077327 18.428101
						}
					}
				}
				JOINT RightShoulder
				{
					OFFSET -4.132702 0.575449 10.599205
					CHANNELS 3 Xrotation Yrotation Zrotation
					JOINT RightArm
					{
						OFFSET 0.000000 -0.000002 13.901794
						CHANNELS 3 Xrotation Yrotation Zrotation
						JOINT RightArmRoll
						{
							OFFSET 0.000000 -0.000002 7.017883
							CHANNELS 3 Xrotation Yrotation Zrotation
							JOINT RightForeArm
							{
								OFFSET 0.000000 -0.000003 20.440598
								CHANNELS 3 Xrotation Yrotation Zrotation
								JOINT RightForeArmRoll
								{
									OFFSET 0.000000 -0.000001 7.875153
									CHANNELS 3 Xrotation Yrotation Zrotation
									JOINT RightHand
									{
										OFFSET 0.000000 -0.000003 15.803696
										CHANNELS 3 Xrotation Yrotation Zrotation
										End Site
										{
											OFFSET 0.000000 0.000000 0.100006
										}
									}
								}
							}
						}
					}
				}
				JOINT LeftShoulder
				{
					OFFSET 4.132702 0.575449 10.599205
					CHANNELS 3 Xrotation Yrotation Zrotation
					JOINT LeftArm
					{
						OFFSET 0.000000 -0.000002 13.901794
						CHANNELS 3 Xrotation Yrotation Zrotation
						JOINT LeftArmRoll
						{
							OFFSET 0.000000 -0.000002 7.017883
							CHANNELS 3 Xrotation Yrotation Zrotation
							JOINT LeftForeArm
							{
								OFFSET 0.000000 -0.000003 20.440598
								CHANNELS 3 Xrotation Yrotation Zrotation
								JOINT LeftForeArmRoll
								{
									OFFSET 0.000000 -0.000001 7.875153
									CHANNELS 3 Xrotation Yrotation Zrotation
									JOINT LeftHand
									{
										OFFSET 0.000000 -0.000003 15.803696
										CHANNELS 3 Xrotation Yrotation Zrotation
										End Site
										{
											OFFSET 0.000000 0.000000 0.100006
										}
									}
								}
							}
						}
					}
				}
			}
		}
	}
	JOINT RightUpLeg
	{
		OFFSET -7.060482 1.086100 -1.294701
		CHANNELS 3 Xrotation Yrotation Zrotation
		JOINT RightUpLegRoll
		{
			OFFSET 0.000000 -0.000003 18.530800
			CHANNELS 3 Xrotation Yrotation Zrotation
			JOINT RightLeg
			{
				OFFSET 0.000000 0.000004 -22.947601
				CHANNELS 3 Xrotation Yrotation Zrotation
				JOINT RightLegRoll
				{
					OFFSET 0.000000 -0.000004 23.022598
					CHANNELS 3 Xrotation Yrotation Zrotation
					JOINT RightFoot
					{
						OFFSET 0.000000 -0.000004 19.162506
						CHANNELS 3 Xrotation Yrotation Zrotation
						JOINT RightToeBase
						{
							OFFSET 0.000000 -0.000002 16.018799
							CHANNELS 3 Xrotation Yrotation Zrotation
							End Site
							{
								OFFSET 0.006790 0.894204 7.757828
							}
						}
					}
				}
			}
		}
	}
	JOINT LeftUpLeg
	{
		OFFSET 7.060482 1.086100 -1.294701
		CHANNELS 3 Xrotation Yrotation Zrotation
		JOINT LeftUpLegRoll
		{
			OFFSET 0.000000 -0.000003 18.530899
			CHANNELS 3 Xrotation Yrotation Zrotation
			JOINT LeftLeg
			{
				OFFSET 0.000000 -0.000004 22.947502
				CHANNELS 3 Xrotation Yrotation Zrotation
				JOINT LeftLegRoll
				{
					OFFSET 0.000000 -0.000004 23.235504
					CHANNELS 3 Xrotation Yrotation Zrotation
					JOINT LeftFoot
					{
						OFFSET 0.000000 -0.000003 18.949600
						CHANNELS 3 Xrotation Yrotation Zrotation
						JOINT LeftToeBase
						{
							OFFSET 0.000000 -0.000003 16.018799
							CHANNELS 3 Xrotation Yrotation Zrotation
							End Site
							{
								OFFSET -0.030430 0.894206 7.757812
							}
						}
					}
				}
			}
		}
	}
}
MOTION
Frames: 6
Frame Time: 0.041667
51.933495 -10.472014 95.678810 -3.510611 0.513556 1.328706 -1.591423 -0.305003 0.132885 0.822289 -0.638511 0.290438 2.467402 -0.635061 0.298026 24.452707 1.420661 -0.571392 -2.769503 -0.976640 -0.414307 11.822987 -71.778533 11.375465 -61.001622 -112.867025 -37.295377 -0.000001 0.000000 -0.000001 0.024538 -2.811981 -0.211594 0.000003 0.000000 -3.038520 -5.000172 -7.999771 0.000032 6.000287 74.015065 -4.717808 -60.915630 114.691280 30.776880 -0.000000 -0.000000 0.000001 6.848924 -7.552681 -0.797867 0.000002 -0.000012 3.005028 -5.000145 8.000329 0.000044 5.037465 -176.358080 -2.020663 -179.999991 0.000005 -1.219006 176.459727 -2.092006 -0.530395 -0.000003 0.000001 0.036378 69.116330 6.963381 1.935606 25.588453 -7.355158 0.196111 1.119749 173.233282 -0.018267 -0.000005 -0.000005 -1.150690 -7.059692 1.607467 0.396843 -0.000002 0.000004 -0.043409 69.527747 -6.582654 -2.905460 25.456959 7.355614 0.000000 
51.933796 -10.479918 95.674103 -3.517852 0.513397 1.326701 -1.591763 -0.306192 0.134019 0.822036 -0.639042 0.290481 2.467143 -0.635586 0.298078 24.469942 1.431737 -0.574845 -2.770248 -0.985990 -0.416210 11.829829 -71.777194 11.383109 -61.001567 -112.859689 -37.290681 -0.000002 0.000000 -0.000001 0.024522 -2.810711 -0.211810 0.000002 0.000000 -3.038580 -5.000172 -7.999770 0.000034 6.006152 74.026663 -4.722454 -60.929727 114.659888 30.838786 -0.000003 -0.000000 0.000000 6.797083 -7.485893 -0.796226 0.000001 -0.000012 3.005031 -5.000139 8.000329 0.000043 5.047616 -176.358148 -2.013458 -179.999991 0.000006 -1.219006 176.465041 -2.101997 -0.530818 -0.000003 0.000001 0.036378 69.117177 6.963389 1.935653 25.578655 -7.355186 0.181497 1.141516 173.232339 -0.024052 -0.000005 -0.000005 -1.151400 -7.040285 1.610054 0.395912 -0.000002 0.000004 -0.043409 69.522904 -6.585357 -2.898638 25.456959 7.355613 -0.000000 
51.933697 -10.484217 95.677902 -3.525063 0.513230 1.324726 -1.592113 -0.307392 0.135171 0.821790 -0.639538 0.290467 2.466902 -0.636076 0.298074 24.486773 1.442413 -0.578245 -2.770558 -0.994944 -0.418104 11.836393 -71.776279 11.390382 -61.002038 -112.852688 -37.285887 -0.000001 -0.000000 -0.000001 0.024493 -2.808620 -0.212134 0.000004 -0.000000 -3.038660 -5.000173 -7.999770 0.000034 6.012274 74.037837 -4.727424 -60.940348 114.629644 30.894588 -0.000002 -0.000000 0.000001 6.748214 -7.422226 -0.794278 0.000001 -0.000011 3.005032 -5.000141 8.000329 0.000040 5.057668 -176.359186 -2.006087 -179.999991 0.000005 -1.219006 176.470532 -2.112987 -0.531293 -0.000003 0.000001 0.036378 69.118133 6.963401 1.935495 25.568354 -7.355213 0.166146 1.163665 173.230386 -0.030164 -0.000005 -0.000004 -1.152140 -7.020106 1.612924 0.394945 -0.000003 0.000003 -0.043410 69.517863 -6.588158 -2.891443 25.456959 7.355615 -0.000001 
51.940495 -10.477419 95.672798 -3.532243 0.513058 1.322760 -1.592464 -0.308601 0.136335 0.821548 -0.640009 0.290415 2.466663 -0.636542 0.298031 24.503396 1.452806 -0.581610 -2.770557 -1.003625 -0.419992 11.842567 -71.775480 11.397198 -61.000700 -112.846357 -37.278653 -0.000000 -0.000000 -0.000001 0.024463 -2.805970 -0.212530 0.000000 0.000000 -3.038770 -5.000174 -7.999770 0.000033 6.018621 74.048813 -4.732665 -60.951126 114.599482 30.949045 -0.000002 0.000000 0.000003 6.701417 -7.360736 -0.792111 0.000002 -0.000011 3.005032 -5.000140 8.000329 0.000043 5.067664 -176.360252 -1.998541 -179.999991 0.000006 -1.219006 176.476119 -2.123975 -0.530765 -0.000003 0.000001 0.036379 69.118980 6.963409 1.935543 25.557753 -7.355225 0.150278 1.186065 173.228433 -0.036492 -0.000005 -0.000005 -1.152900 -6.999388 1.615983 0.393951 -0.000002 0.000004 -0.043409 69.512543 -6.591045 -2.884184 25.456960 7.355613 -0.000001 
51.937897 -10.484320 95.674789 -3.539410 0.512881 1.320813 -1.592822 -0.309814 0.137508 0.821312 -0.640467 0.290341 2.466423 -0.636994 0.297965 24.519925 1.463043 -0.584962 -2.770374 -1.012136 -0.421876 11.848684 -71.774899 11.403914 -60.999491 -112.840100 -37.271465 0.000001 0.000000 -0.000000 0.024431 -2.803001 -0.212967 -0.000001 -0.000000 -3.038890 -5.000174 -7.999769 0.000033 6.025125 74.059687 -4.738099 -60.962068 114.569395 31.002819 -0.000003 -0.000000 0.000000 6.655819 -7.300496 -0.789762 -0.000001 -0.000011 3.005030 -5.000136 8.000331 0.000042 5.077625 -176.360306 -1.990810 -179.999991 0.000005 -1.219006 176.481747 -2.134978 -0.531231 -0.000003 0.000001 0.036378 69.119937 6.963423 1.935587 25.546837 -7.355243 0.134118 1.208618 173.226506 -0.042944 -0.000005 -0.000004 -1.153670 -6.978371 1.619152 0.392942 -0.000002 0.000004 -0.043410 69.507243 -6.594004 -2.876636 25.456959 7.355614 0.000000 
51.945595 -10.528919 95.676689 -3.546570 0.512705 1.318856 -1.593184 -0.311029 0.138682 0.821075 -0.640921 0.290262 2.466183 -0.637444 0.297895 24.536341 1.473233 -0.588308 -2.770139 -1.020616 -0.423759 11.854767 -71.774415 11.410604 -60.998268 -112.833851 -37.264156 0.000000 0.000000 0.000001 0.024395 -2.799940 -0.213416 0.000002 0.000000 -3.039011 -5.000171 -7.999770 0.000033 6.031596 74.070451 -4.743497 -60.973051 114.539315 31.056436 0.000002 -0.000000 0.000001 6.610530 -7.240582 -0.787310 0.000000 -0.000011 3.005030 -5.000142 8.000329 0.000041 5.087577 -176.361345 -1.983126 -179.999991 0.000005 -1.219006 176.487403 -2.146962 -0.530757 -0.000003 0.000001 0.036378 69.120784 6.963429 1.935634 25.536032 -7.355247 0.117897 1.231210 173.224539 -0.049429 -0.000004 -0.000004 -1.154440 -6.957263 1.622362 0.391926 -0.000002 0.000004 -0.043409 69.501847 -6.596989 -2.869098 25.456959 7.355613 -0.000000 
